<?xml version="1.0" encoding="UTF-8"?>
<svg xmlns="http://www.w3.org/2000/svg" viewBox="81.7 0 118 120.2" aria-hidden="true">
  <style>.st0{fill:#222B99;}</style>
  <path class="st0" d="M135.2,52.1L117.4,7.5h6.4c7.2,0,13.1,7.2,13.1,16h7.5c0-8.8,5.9-16,13.1-16h6.4l-17.8,44.5l2.5,37.8h38V0.2
    h-7.5v82.1h-23.5l-1.9-29.1L175,0h-17.5c-7,0-13.1,4-16.9,10c-3.7-6-9.9-10-16.9-10h-17.5l21.3,53.3l-1.9,29.1h-23.5V0.2h-7.5v89.7
    h38L135.2,52.1z"/>
  <path class="st0" d="M136.9,120.2h7.5c0-9.7,6.5-17.5,14.5-17.5h40.8V10h-7.5v85.1h-33.2c-7.6,0-14.3,4.4-18.2,11.1
    c-4-6.7-10.6-11.1-18.2-11.1H89.2V10h-7.5v92.6h40.8C130.4,102.6,136.9,110.5,136.9,120.2z"/>
</svg>
